<svg width="62" height="62" viewBox="0 0 62 62" fill="none" xmlns="http://www.w3.org/2000/svg">
<path d="M34.875 3.875C34.875 2.84729 34.4667 1.86166 33.74 1.13496C33.0133 0.408258 32.0277 0 31 0C29.9723 0 28.9867 0.408258 28.26 1.13496C27.5333 1.86166 27.125 2.84729 27.125 3.875V7.75C27.125 8.77771 27.5333 9.76333 28.26 10.49C28.9867 11.2167 29.9723 11.625 31 11.625C32.0277 11.625 33.0133 11.2167 33.74 10.49C34.4667 9.76333 34.875 8.77771 34.875 7.75V3.875ZM52.9209 14.5584C53.6267 13.8275 54.0173 12.8487 54.0085 11.8327C53.9997 10.8167 53.5921 9.84478 52.8737 9.12633C52.1552 8.40787 51.1833 8.00034 50.1673 7.99151C49.1513 7.98268 48.1725 8.37326 47.4416 9.07912L44.702 11.8188C43.9961 12.5496 43.6056 13.5284 43.6144 14.5444C43.6232 15.5604 44.0307 16.5323 44.7492 17.2508C45.4677 17.9693 46.4396 18.3768 47.4556 18.3856C48.4716 18.3944 49.4504 18.0039 50.1812 17.298L52.9209 14.5584ZM62 31C62 32.0277 61.5917 33.0133 60.865 33.74C60.1383 34.4667 59.1527 34.875 58.125 34.875H54.25C53.2223 34.875 52.2367 34.4667 51.51 33.74C50.7833 33.0133 50.375 32.0277 50.375 31C50.375 29.9723 50.7833 28.9867 51.51 28.26C52.2367 27.5333 53.2223 27.125 54.25 27.125H58.125C59.1527 27.125 60.1383 27.5333 60.865 28.26C61.5917 28.9867 62 29.9723 62 31ZM11.8188 17.298C12.1762 17.6681 12.6038 17.9633 13.0766 18.1664C13.5493 18.3695 14.0578 18.4764 14.5723 18.4808C15.0868 18.4853 15.5971 18.3873 16.0733 18.1924C16.5495 17.9976 16.9822 17.7099 17.346 17.346C17.7099 16.9822 17.9976 16.5495 18.1924 16.0733C18.3873 15.5971 18.4853 15.0868 18.4808 14.5723C18.4764 14.0578 18.3695 13.5493 18.1664 13.0766C17.9633 12.6038 17.6681 12.1762 17.298 11.8188L14.5584 9.07912C13.8275 8.37326 12.8487 7.98268 11.8327 7.99151C10.8167 8.00034 9.84478 8.40787 9.12633 9.12633C8.40787 9.84478 8.00034 10.8167 7.99151 11.8327C7.98268 12.8487 8.37326 13.8275 9.07912 14.5584L11.8188 17.298ZM11.625 31C11.625 32.0277 11.2167 33.0133 10.49 33.74C9.76333 34.4667 8.77771 34.875 7.75 34.875H3.875C2.84729 34.875 1.86166 34.4667 1.13496 33.74C0.408258 33.0133 0 32.0277 0 31C0 29.9723 0.408258 28.9867 1.13496 28.26C1.86166 27.5333 2.84729 27.125 3.875 27.125H7.75C8.77771 27.125 9.76333 27.5333 10.49 28.26C11.2167 28.9867 11.625 29.9723 11.625 31ZM23.25 54.25V50.375H38.75V54.25C38.75 56.3054 37.9335 58.2767 36.4801 59.7301C35.0267 61.1835 33.0554 62 31 62C28.9446 62 26.9733 61.1835 25.5199 59.7301C24.0665 58.2767 23.25 56.3054 23.25 54.25ZM38.75 46.5C38.8081 45.1825 39.556 43.9967 40.5984 43.1714C43.1275 41.1767 44.9724 38.4437 45.8767 35.3522C46.7809 32.2607 46.6996 28.9643 45.644 25.9211C44.5884 22.878 42.6109 20.2393 39.9865 18.3718C37.3621 16.5043 34.221 15.5009 31 15.5009C27.779 15.5009 24.6379 16.5043 22.0135 18.3718C19.3891 20.2393 17.4116 22.878 16.356 25.9211C15.3004 28.9643 15.2191 32.2607 16.1233 35.3522C17.0276 38.4437 18.8725 41.1767 21.4016 43.1714C22.4479 43.9967 23.1919 45.1825 23.2461 46.5H38.7539H38.75Z" fill="#E6D76D"/>
</svg>
