<svg width="42" height="44" viewBox="0 0 42 44" fill="none" xmlns="http://www.w3.org/2000/svg">
<path d="M27.0933 12.3636L27.0703 12.4069C26.618 13.2538 26.3183 14.1739 26.1841 15.1268L26.1946 15.066C26.0632 15.9941 26.1742 16.9439 26.5172 17.8254L26.5206 17.8327C26.8383 18.6821 27.4644 19.4303 28.3394 19.8968L28.4078 19.9332L28.405 19.9317C29.563 20.5406 30.9091 20.6788 32.153 20.3164C33.4758 19.9884 34.7008 19.3656 35.7353 18.4954L35.7821 18.4521C36.7705 17.6354 37.5922 16.64 38.2047 15.5176L38.2307 15.4687C38.6955 14.5968 38.9864 13.677 39.1169 12.7489L39.1064 12.8097C39.2378 11.8815 39.1268 10.9317 38.7838 10.0502L38.7804 10.043C38.4392 9.13149 37.7603 8.37801 36.8832 7.93709L36.8874 7.93937C35.73 7.32863 34.3832 7.19039 33.1394 7.55467C31.8256 7.88741 30.6088 8.50874 29.5788 9.37289L29.532 9.41612C28.5987 10.1747 27.7494 11.1809 27.1027 12.3632L27.1005 12.3674L27.0933 12.3636ZM29.0888 26.9713L29.0248 27.088C28.463 28.1378 28.2476 29.3397 28.4083 30.5276L28.4059 30.5048C28.4755 31.0533 28.6781 31.5791 28.9963 32.0375C29.3145 32.4958 29.7388 32.8729 30.2331 33.1368L30.3757 33.2092L30.3685 33.2054C31.5434 33.8155 32.8968 33.9814 34.1719 33.6716L34.1654 33.6735C35.4966 33.3914 36.7484 32.8348 37.8397 32.0397C38.931 31.2445 39.8374 30.2287 40.5001 29.058L40.506 29.0468L40.5685 28.9329C41.1533 27.836 41.3449 26.6319 41.1924 25.4793L41.1949 25.5022C41.1257 24.9254 40.909 24.3732 40.5653 23.898C40.2216 23.4227 39.7624 23.0402 39.2311 22.7866L39.2382 22.7904C38.0633 22.1803 36.7099 22.0144 35.4348 22.3241L35.4413 22.3222C34.1063 22.6081 32.8513 23.169 31.7577 23.9687C30.6641 24.7683 29.7561 25.7889 29.0925 26.9644L29.0873 26.9741L29.0888 26.9713ZM20.6226 21.7012C18.4825 20.7035 16.0909 20.3895 13.7843 20.8034L13.8125 20.7986C11.0861 21.1233 8.45095 21.9396 6.03715 23.2072L5.95355 23.2542C3.87695 24.2109 2.13929 25.7531 0.955332 27.6903L0.939011 27.7175L0.871357 27.8376C0.570436 28.4021 0.426994 29.0111 0.426875 29.6121L0.428008 29.5894C0.438485 30.1462 0.629694 30.6879 0.973392 31.1344L0.984662 31.1476C1.29586 31.5629 1.6978 31.9727 2.15688 32.3269L2.18885 32.3493C2.67156 32.7111 3.18199 33.0348 3.71529 33.3173L3.82218 33.3743L3.81648 33.3713C5.33574 34.0587 6.95933 34.4834 8.61569 34.6267L8.51589 34.6148C10.0806 34.7492 11.6157 35.1423 13.057 35.7776L13.1027 35.7983C14.6136 36.7508 15.8854 37.8738 16.9496 39.139L16.872 39.0546C17.9874 40.3631 19.3074 41.4873 20.7802 42.3832L20.8194 42.4059C23.5415 43.8592 25.4688 43.5235 26.6015 41.3985C27.3334 39.8767 27.67 38.1931 27.5812 36.4981L27.5831 36.5529C27.5688 34.571 27.2763 32.5961 26.714 30.6849L26.7167 30.6936C26.1702 28.8196 25.3579 27.0278 24.3044 25.3721L24.2407 25.2789C23.3729 23.8048 22.134 22.5746 20.6469 21.7106L20.6298 21.7015L20.6226 21.7012ZM17.7553 14.2567L17.8209 14.2917C18.6608 14.7406 19.6342 14.8681 20.5527 14.6497L20.5484 14.651C21.4621 14.4497 22.3052 14.0211 22.9985 13.4054L23.0278 13.3779C23.7272 12.7471 24.3093 12 24.7486 11.1694L24.7732 11.1233L24.7717 11.126C25.3957 9.92447 25.7569 8.65991 25.8764 7.38857L25.8664 7.46221C26.0213 6.10773 25.8628 4.7311 25.4027 3.43606L25.3993 3.42883C25.0074 2.19445 24.1423 1.15442 22.9912 0.533842L22.9242 0.498136C22.0491 0.0316896 21.0782 -0.0695462 20.1923 0.140104L20.1967 0.138829C19.2872 0.341275 18.4435 0.763617 17.7465 1.38442L17.7172 1.41188C17.0562 1.9962 16.4503 2.75524 15.9825 3.63278L15.9676 3.66073L15.9684 3.65933C15.3667 4.81792 14.9939 6.08225 14.8697 7.38563L14.8797 7.31199C14.7219 8.67278 14.8836 10.0564 15.3524 11.3555L15.3551 11.3641C15.7492 12.5971 16.6144 13.6357 17.7647 14.2563L17.7661 14.2571L17.7553 14.2567ZM9.34497 6.85955L9.21535 6.78687C8.17354 6.23154 6.98168 6.25297 6.01519 6.74086L6.00285 6.74684C4.93214 7.28051 4.05924 8.13042 3.50306 9.18078L3.44042 9.30172L3.4434 9.29613C2.83927 10.4971 2.4993 11.8145 2.44557 13.1627C2.39184 14.511 2.62555 15.8599 3.13153 17.1221L3.13772 17.138C3.5916 18.3657 4.48185 19.3937 5.64015 20.0276L5.64301 20.0292C6.14558 20.3262 6.71388 20.4939 7.29503 20.5166C7.87617 20.5393 8.45128 20.4163 8.96683 20.159L8.97917 20.1531C10.0896 19.6036 10.9857 18.7122 11.5349 17.6108L11.5319 17.6163C12.1391 16.4116 12.4818 15.0901 12.5381 13.7373C12.5944 12.3844 12.363 11.0303 11.8587 9.76239L11.8525 9.74653C11.3983 8.52178 10.5098 7.49616 9.35427 6.86271L9.35142 6.86119L9.34497 6.85955Z" fill="#003636"/>
</svg>
