<svg width="83" height="85" viewBox="0 0 83 85" fill="none" xmlns="http://www.w3.org/2000/svg">
<g filter="url(#filter0_d_20_503)">
<path d="M32.8637 26.6299C35.1943 27.5466 38.1247 25.7398 39.4089 22.5941C40.6931 19.4485 39.8448 16.1553 37.5142 15.2385C35.1835 14.3217 32.2532 16.1286 30.969 19.2742C29.6848 22.4199 30.5331 25.7131 32.8637 26.6299Z" fill="#FF8552"/>
<path d="M28.3516 46.0289C29.8358 46.8701 30.298 47.772 30.7617 48.6767C31.2284 49.5873 31.6966 50.5008 33.2096 51.3582C37.7052 53.906 41.5395 48.3507 40.27 43.7671C39.8555 42.2705 39.8183 40.8503 39.7833 39.5184C39.7112 36.7709 39.6489 34.3987 36.3063 32.5044C32.9656 30.6111 30.8438 31.743 28.3855 33.0545C27.1917 33.6914 25.9185 34.3706 24.3878 34.7662C19.7052 35.9766 16.7251 42.016 21.2207 44.5638C22.7337 45.4213 23.7738 45.3625 24.8104 45.304C25.8405 45.2458 26.8673 45.1878 28.3516 46.0289Z" fill="#FF8552"/>
<path d="M50.9389 22.8195C52.9131 24.3423 52.7842 27.7368 50.651 30.4013C48.5178 33.0658 45.1882 33.9913 43.214 32.4685C41.2399 30.9456 41.3688 27.5511 43.502 24.8866C45.6352 22.2221 48.9648 21.2966 50.9389 22.8195Z" fill="#FF8552"/>
<path d="M22.3061 29.4358C24.1841 29.5697 25.8539 27.6856 26.0357 25.2277C26.2175 22.7698 24.8424 20.6688 22.9644 20.5349C21.0864 20.4011 19.4166 22.2851 19.2348 24.743C19.0531 27.201 20.4281 29.302 22.3061 29.4358Z" fill="#FF8552"/>
<path d="M53.5402 37.8311C54.5973 39.3607 53.7699 41.7221 51.6923 43.1056C49.6147 44.4891 47.0735 44.3707 46.0164 42.8412C44.9594 41.3116 45.7867 38.9502 47.8643 37.5667C49.9419 36.1832 52.4831 36.3016 53.5402 37.8311Z" fill="#FF8552"/>
</g>
<defs>
<filter id="filter0_d_20_503" x="0" y="0" width="83" height="85" filterUnits="userSpaceOnUse" color-interpolation-filters="sRGB">
<feFlood flood-opacity="0" result="BackgroundImageFix"/>
<feColorMatrix in="SourceAlpha" type="matrix" values="0 0 0 0 0 0 0 0 0 0 0 0 0 0 0 0 0 0 127 0" result="hardAlpha"/>
<feOffset dx="5" dy="9"/>
<feGaussianBlur stdDeviation="12"/>
<feComposite in2="hardAlpha" operator="out"/>
<feColorMatrix type="matrix" values="0 0 0 0 1 0 0 0 0 0.619608 0 0 0 0 0.494118 0 0 0 0.08 0"/>
<feBlend mode="normal" in2="BackgroundImageFix" result="effect1_dropShadow_20_503"/>
<feBlend mode="normal" in="SourceGraphic" in2="effect1_dropShadow_20_503" result="shape"/>
</filter>
</defs>
</svg>
