<svg width="652" height="632" viewBox="0 0 652 632" fill="none" xmlns="http://www.w3.org/2000/svg">
<path fill-rule="evenodd" clip-rule="evenodd" d="M329.059 75.1058C365.34 86.5816 402.986 81.8758 440.493 88.2994C496.476 97.8876 563.323 83.161 604.502 122.281C644.768 160.533 662.691 229.13 643.663 281.308C623.887 335.537 545.591 340.632 508.689 385.017C480.525 418.892 484.059 469.113 457.993 504.627C421.942 553.744 388.785 617.715 329.059 629.753C270.595 641.537 216.559 595.344 166.166 563.447C117.318 532.527 70.2805 497.468 41.167 447.522C11.9928 397.473 -5.76258 338.756 1.70648 281.308C8.86342 226.26 52.9887 186.012 81.3695 138.304C109.347 91.2751 114.809 15.5838 167.832 2.0549C225.993 -12.7849 271.83 57.0037 329.059 75.1058Z" fill="#E6D76D" fill-opacity="0.7"/>
</svg>
