<svg width="169" height="138" viewBox="0 0 169 138" fill="none" xmlns="http://www.w3.org/2000/svg">
<path d="M91.6389 47.7689C93.1952 45.0085 94.3994 42.0442 95.7518 39.1727C98.2899 31.8918 100.884 24.6295 101.532 16.941C101.754 14.8225 101.754 12.6865 101.532 10.5679C100.717 4.02814 96.7893 0.434016 90.2124 0.0264364C85.3665 -0.168593 80.5379 0.717409 76.0768 2.62014C66.2393 6.56626 57.4392 12.1427 51.8999 21.4059C49.0851 25.8113 47.351 30.8194 46.8391 36.0222C46.3272 41.2249 47.0519 46.475 48.9542 51.3445C53.4376 62.9791 65.0907 67.5551 76.4658 62.3677C82.9767 59.2812 88.3036 54.1559 91.6389 47.7689Z" fill="url(#paint0_linear_31_1463)"/>
<path d="M132.119 85.5813C143.476 79.8752 150.219 70.5564 151.46 57.7918C152.658 45.9747 149.524 34.1247 142.642 24.4443C141.406 22.7052 139.935 21.1464 138.27 19.8127C136.41 18.0342 133.965 16.9948 131.394 16.8891C128.822 16.7833 126.301 17.6186 124.301 19.2384C119.689 22.7037 115.932 27.1776 113.315 32.318C111.147 36.0233 109.239 39.9694 107.201 43.8044C103.848 51.0852 101.643 58.6255 102.551 66.6844C102.95 71.8345 104.886 76.7462 108.109 80.783C110.932 84.2446 114.872 86.6164 119.253 87.4918C123.633 88.3672 128.182 87.6918 132.119 85.5813Z" fill="url(#paint1_linear_31_1463)"/>
<path d="M135.806 137.992C147.978 137.696 156.945 131.731 162.966 121.319C163.564 120.114 164.096 118.877 164.559 117.613C167.899 110.099 168.943 101.765 167.56 93.6589C167.415 92.8763 167.223 92.103 166.986 91.3431C164.577 83.9325 159.334 80.9127 151.683 82.8951C146.175 84.4997 141.038 87.1754 136.566 90.7688C130.563 95.3077 124.783 100.032 121.17 106.924C118.905 110.996 117.731 115.585 117.761 120.244C117.872 130.693 125.45 138.27 135.806 137.992Z" fill="url(#paint2_linear_31_1463)"/>
<path d="M3.17527 48.6579C-1.90096 61.2003 -0.919039 72.0753 6.32477 82.0054C13.5686 91.9355 26.2777 93.0101 34.7442 84.0618C37.7095 80.9247 39.8597 77.1078 41.0061 72.946C43.8592 63.1641 42.5623 53.4563 40.3206 43.8225C39.4857 40.3877 38.1829 37.0838 36.4486 34.0036C32.8915 27.6305 27.0928 26.0002 20.5345 29.1867C14.9889 32.1001 10.335 36.4596 7.06581 41.8032C5.43549 44.3969 4.10158 47.0832 3.17527 48.6579Z" fill="url(#paint3_linear_31_1463)"/>
<defs>
<linearGradient id="paint0_linear_31_1463" x1="85.3764" y1="-1.31652e-06" x2="44.3519" y2="53.9338" gradientUnits="userSpaceOnUse">
<stop stop-color="#E6D76D"/>
<stop offset="1" stop-color="#FF8552"/>
</linearGradient>
<linearGradient id="paint1_linear_31_1463" x1="137.065" y1="16.8801" x2="90.3195" y2="66.9735" gradientUnits="userSpaceOnUse">
<stop stop-color="#E6D76D"/>
<stop offset="1" stop-color="#FF8552"/>
</linearGradient>
<linearGradient id="paint2_linear_31_1463" x1="153.204" y1="82.301" x2="118.378" y2="130.855" gradientUnits="userSpaceOnUse">
<stop stop-color="#E6D76D"/>
<stop offset="1" stop-color="#FF8552"/>
</linearGradient>
<linearGradient id="paint3_linear_31_1463" x1="29.9926" y1="27.603" x2="-11.253" y2="70.9272" gradientUnits="userSpaceOnUse">
<stop stop-color="#E6D76D"/>
<stop offset="1" stop-color="#FF8552"/>
</linearGradient>
</defs>
</svg>
