<svg width="205" height="255" viewBox="0 0 205 255" fill="none" xmlns="http://www.w3.org/2000/svg">
<path d="M69.9065 182.327C67.448 189.87 69.4148 193.931 73.8402 197.992C79.249 203.794 84.1662 207.855 93.017 206.115C103.835 204.374 114.161 220.039 108.752 230.483C104.818 238.025 98.9175 245.568 93.017 251.369C84.6579 259.492 70.3982 249.629 70.8899 236.285C70.8899 226.421 67.448 221.2 61.5474 215.398C51.2215 204.954 40.8955 194.511 31.0613 183.488C28.111 180.006 25.1608 178.846 20.7354 180.006C11.3928 181.747 5.0006 178.266 1.55862 169.563C-1.88336 161.44 0.575194 152.738 6.96744 148.676C8.44258 147.516 10.4094 146.356 10.9011 144.615C12.3763 137.073 16.31 133.011 23.1939 133.011C29.5862 133.011 36.4701 138.233 38.437 145.195C38.9287 146.936 39.4204 148.676 39.4204 150.417C36.9619 163.761 45.8127 168.983 52.6966 175.365C54.6635 177.105 58.5972 175.945 63.0226 175.945C57.6137 169.563 56.6303 164.922 60.564 159.12C61.5474 157.959 60.0723 153.898 58.5972 151.577C49.7464 137.653 40.4038 123.728 32.0447 109.804C29.0945 104.582 27.1276 98.1999 25.1608 91.8179C20.2437 76.1528 21.2271 62.2283 32.0447 50.0444C38.9287 42.5019 44.8292 34.3793 50.2381 25.6765C57.6137 14.0728 66.9563 11.1718 78.2656 12.9124C93.5087 15.2331 107.768 22.7756 120.553 32.0586C151.039 54.6859 177.1 82.5349 195.293 119.667C197.26 124.308 199.227 128.95 200.702 134.172C206.111 150.997 206.111 166.082 193.818 179.426C186.934 186.969 181.033 196.252 174.641 204.954C169.232 213.077 161.857 215.978 153.989 215.398C136.288 214.818 121.045 206.115 106.293 195.671C100.393 191.61 94.4921 186.388 88.5916 182.327C87.1164 181.167 83.6745 180.587 82.691 181.747C78.7573 187.549 74.8236 186.969 69.9065 182.327ZM150.056 127.789C150.547 127.209 151.039 127.209 151.531 126.629C152.514 127.79 153.989 128.95 154.973 130.69C161.857 144.615 168.741 159.12 175.625 173.044C176.608 174.785 177.591 177.105 179.066 177.686C190.376 181.167 201.685 170.723 201.194 156.799C200.702 148.676 199.227 139.973 196.276 131.851C187.917 107.483 173.658 87.7566 157.431 69.7708C137.271 47.7236 115.144 29.1576 88.0999 19.8746C81.7076 17.5539 74.3319 16.9737 67.448 17.5539C55.6469 18.7143 48.2712 32.0586 52.2049 45.4029C52.6966 47.1434 54.6635 48.884 56.1386 49.4642C93.017 59.9076 121.536 87.1764 146.614 119.087C147.597 120.247 147.597 121.407 148.58 123.148C121.045 91.2377 92.5253 62.8085 53.68 51.7849C63.0226 101.101 134.321 173.044 173.166 175.365C169.232 157.379 158.906 142.874 150.056 127.789ZM47.7795 34.3793C42.3707 41.3416 37.9453 47.7236 33.0282 53.5255C25.1608 62.8085 23.6856 73.8321 27.1276 86.016C29.5862 94.1386 32.0447 102.261 35.4867 109.224C49.2546 138.233 68.9231 160.86 91.0501 180.587C106.293 193.931 122.52 204.954 141.205 210.176C161.857 216.558 179.558 204.954 186.442 182.907C175.625 180.006 163.823 177.686 153.006 173.044C128.912 162.601 108.26 144.615 90.0667 123.148C69.9065 98.7801 50.7298 72.6717 47.7795 34.3793ZM13.3597 150.417C5.0006 152.738 2.05033 155.638 2.54204 162.601C3.03375 169.563 7.45916 175.945 13.8514 177.105C15.8183 177.686 17.7851 177.686 19.7519 177.105C25.1608 175.365 29.5862 177.686 34.0116 182.327C44.3375 193.351 54.1718 203.794 64.4977 214.237C70.3982 220.039 73.8402 225.841 73.3485 235.124C72.8568 243.827 79.2491 250.209 86.133 250.789C92.0336 250.789 94.9838 246.728 95.9672 236.285C101.868 235.124 106.785 232.803 106.785 224.681C106.785 217.719 101.868 210.756 95.9672 210.176C94.0004 209.596 91.5418 209.596 89.575 210.176C84.1662 211.917 80.2325 209.596 76.2988 205.535C66.9563 195.091 57.122 185.228 47.2878 175.365C40.4038 168.983 34.995 162.601 35.9784 150.417C36.4701 142.874 29.5862 136.492 23.1939 136.492C16.8017 136.492 14.3431 140.554 13.3597 150.417ZM64.9894 159.7C59.5806 165.502 60.0723 168.983 65.4811 172.464C67.448 173.624 69.4148 175.365 70.3982 177.686C74.3319 184.068 77.7739 184.068 80.7242 176.525C75.8071 171.304 70.8899 165.502 64.9894 159.7Z" fill="#E6D76D"/>
<path d="M45.569 39.916C48.5193 44.5575 49.5027 48.6188 46.0607 53.2603C42.6187 57.9018 38.685 57.9018 34.7514 54.4207C30.8177 50.9395 30.8177 44.5575 34.2596 40.4962C37.7016 36.4348 41.6353 37.015 45.569 39.916ZM45.569 52.6801C44.5856 48.0386 44.5856 43.9773 43.1104 42.8169C41.6353 41.6565 37.2099 41.6565 36.2265 43.3971C35.2431 45.1377 35.2431 49.7792 36.2265 51.5197C37.7016 53.2603 41.1436 52.6801 45.569 52.6801Z" fill="#E6D76D"/>
<path d="M5.2487 16.7084C1.80672 12.6471 1.80672 7.42545 4.75699 3.36414C8.19897 -0.697172 12.1327 -1.27736 16.0664 2.78395C19.5083 6.26508 20 13.2273 17.0498 16.7084C13.1161 20.1896 9.1824 20.7698 5.2487 16.7084ZM15.5746 3.36414C11.641 4.52452 8.19897 3.94433 7.21555 6.26508C6.23212 8.00564 6.23213 13.2273 7.70726 14.3877C9.1824 15.5481 13.1161 15.5481 14.5912 13.8075C15.5746 12.0669 15.0829 8.58583 15.5746 3.36414Z" fill="#E6D76D"/>
<path d="M69.6635 85.1704C66.7133 81.1091 66.2216 76.4676 69.6635 72.4063C73.1055 68.3449 77.5309 67.7648 80.9729 71.8261C84.4149 75.3072 84.9066 80.5289 81.9563 85.1704C79.0061 88.6515 73.1055 89.2317 69.6635 85.1704ZM70.1552 84.5902C74.0889 83.4298 77.5309 84.01 79.0061 82.2694C79.9895 80.5289 79.0061 76.4676 79.0061 73.5666C76.5475 73.5666 73.1055 72.4063 71.6304 74.1468C70.647 75.8874 71.1387 79.9487 70.1552 84.5902Z" fill="#E6D76D"/>
</svg>
