<svg width="103" height="40" viewBox="0 0 103 40" fill="none" xmlns="http://www.w3.org/2000/svg">
<path d="M30.852 4.728V30H24.696V14.844L19.044 30H14.076L8.388 14.808V30H2.232V4.728H9.504L16.596 22.224L23.616 4.728H30.852ZM64.3216 3.36V30H58.1656V3.36H64.3216ZM74.9388 3.36V30H68.7828V3.36H74.9388ZM99.92 9.912L87.32 39.54H80.696L85.304 29.316L77.132 9.912H84.008L88.652 22.476L93.26 9.912H99.92Z" fill="#297373"/>
<path d="M43.9679 11.3684C38.1577 11.3684 35 15.3508 35 20.8421C35 26.3334 38.1577 30.3158 43.9679 30.3158C49.7781 30.3158 52.9358 26.3334 52.9358 20.8421C52.9358 15.3508 49.7781 11.3684 43.9679 11.3684ZM43.9679 24.1193C42.5732 24.1193 41.8259 22.8125 41.8259 20.8369C41.8259 18.8613 42.5732 17.5546 43.9679 17.5546C45.3625 17.5546 46.1099 18.8613 46.1099 20.8369C46.1099 22.8125 45.3625 24.1193 43.9679 24.1193Z" fill="#297373"/>
<path d="M54.6036 12.1105C53.994 11.6707 52.9956 11.9248 52.3651 12.6773C51.7345 13.4297 51.7188 14.3972 52.323 14.837C52.9326 15.2767 53.931 15.0226 54.5615 14.2702C55.1921 13.5177 55.2079 12.5502 54.6036 12.1105Z" fill="#297373"/>
<path d="M40.2585 10.8312C40.975 10.7212 41.4444 9.81473 41.3061 8.80352C41.1677 7.79232 40.4809 7.0588 39.7644 7.16882C39.0479 7.27885 38.5785 8.18527 38.7168 9.19648C38.8552 10.2077 39.542 10.9412 40.2585 10.8312Z" fill="#297373"/>
<path d="M49.5423 11.761C50.5336 12.2614 52.0341 11.315 52.8885 9.64519C53.7428 7.97541 53.6333 6.21318 52.6366 5.71279C51.6453 5.2124 50.1447 6.15879 49.2904 7.82856C48.436 9.49834 48.5456 11.2606 49.5423 11.761Z" fill="#297373"/>
<path d="M44.4105 10.3073C45.4095 10.4344 46.3789 9.12591 46.5717 7.38834C46.7646 5.64546 46.1118 4.13567 45.1078 4.00853C44.1088 3.88139 43.1395 5.18988 42.9466 6.92745C42.7537 8.67033 43.4066 10.1801 44.4105 10.3073Z" fill="#297373"/>
</svg>
