<svg width="46" height="46" viewBox="0 0 46 46" fill="none" xmlns="http://www.w3.org/2000/svg">
<path d="M21.6583 42.7416L17.25 38.3333H9.58334C8.52917 38.3333 7.62642 37.9576 6.87509 37.2063C6.12375 36.4549 5.74873 35.5528 5.75 34.4999V7.66659C5.75 6.61242 6.12567 5.70967 6.877 4.95834C7.62834 4.207 8.53045 3.83198 9.58334 3.83326H36.4167C37.4708 3.83326 38.3736 4.20892 39.1249 4.96026C39.8763 5.71159 40.2513 6.6137 40.25 7.66659V34.4999C40.25 35.5541 39.8743 36.4568 39.123 37.2082C38.3717 37.9595 37.4696 38.3345 36.4167 38.3333H28.75L24.3417 42.7416C23.9903 43.093 23.5431 43.2687 23 43.2687C22.4569 43.2687 22.0097 43.093 21.6583 42.7416ZM22.9042 32.1999C23.575 32.1999 24.1423 31.968 24.6062 31.5042C25.07 31.0403 25.3013 30.4736 25.3 29.8041C25.3 29.1333 25.0687 28.5659 24.6062 28.1021C24.1436 27.6383 23.5763 27.407 22.9042 27.4083C22.2333 27.4083 21.6666 27.6402 21.2041 28.104C20.7415 28.5678 20.5096 29.1345 20.5083 29.8041C20.5083 30.4749 20.7403 31.0423 21.2041 31.5061C21.6679 31.9699 22.2346 32.2012 22.9042 32.1999ZM24.8208 23.1916C24.9167 22.6805 25.0847 22.2333 25.3249 21.8499C25.5651 21.4666 26.036 20.9235 26.7375 20.2208C27.9194 19.0388 28.7181 18.0805 29.1333 17.3458C29.5486 16.611 29.7563 15.7805 29.7563 14.8541C29.7563 13.2249 29.157 11.8756 27.9584 10.8061C26.7599 9.73659 25.2514 9.2012 23.4332 9.19992C22.0596 9.19992 20.838 9.47975 19.7685 10.0394C18.699 10.5991 17.8755 11.3415 17.2979 12.2666C17.0104 12.7138 16.9306 13.1853 17.0583 13.6811C17.1861 14.1769 17.4736 14.5199 17.9208 14.7103C18.3681 14.902 18.8076 14.9103 19.2395 14.7353C19.6714 14.5602 20.0145 14.2644 20.2688 13.8478C20.5882 13.4006 21.0194 13.0575 21.5625 12.8186C22.1056 12.5796 22.6646 12.4595 23.2396 12.4583C24.134 12.4583 24.8528 12.6978 25.3958 13.177C25.9389 13.6562 26.2104 14.2631 26.2104 14.9978C26.2104 15.6048 26.0271 16.2117 25.6603 16.8187C25.2936 17.4256 24.7263 18.0645 23.9583 18.7353C23.1278 19.4701 22.4889 20.2208 22.0417 20.9874C21.5944 21.7541 21.3708 22.4728 21.3708 23.1437C21.3708 23.5909 21.5389 23.9742 21.8749 24.2937C22.211 24.6131 22.6179 24.7728 23.0958 24.7728C23.5431 24.7728 23.9181 24.6208 24.2209 24.3167C24.5238 24.0126 24.7237 23.6375 24.8208 23.1916Z" fill="#003636"/>
</svg>
